<svg width="96" height="102" viewBox="0 0 96 102" fill="none" xmlns="http://www.w3.org/2000/svg">
<path fill-rule="evenodd" clip-rule="evenodd" d="M60.8419 52.6303L51.2336 58.1731C50.3942 58.6558 49.3234 58.369 48.838 57.5329L37.7296 38.3178C37.246 37.4801 37.5334 36.4096 38.3728 35.9269L47.9969 30.3999C54.1495 26.8493 61.9985 28.9482 65.5558 35.0874C66.7299 37.0988 67.2732 39.3201 67.2732 41.4889C67.2732 45.9315 64.9775 50.2516 60.8419 52.6303ZM87.8287 22.2493C77.1742 3.83181 53.587 -2.46477 35.1344 8.16946L4.75493 25.66C3.07789 26.6254 2.50136 28.7663 3.47043 30.4384L29.8018 75.9504C30.3643 76.9229 30.6605 78.0248 30.6605 79.1442V98.0847C30.6605 98.7895 31.4228 99.2286 32.0344 98.8752L40.3039 94.1003L45.9659 90.8471L73.7044 74.8608C86.0763 67.7246 93 54.7799 93 41.4714C93 34.9299 91.3335 28.3185 87.8287 22.2493Z" fill="#5644D8"/>
<mask id="mask0_509_12979" style="mask-type:alpha" maskUnits="userSpaceOnUse" x="3" y="3" width="90" height="96">
<path fill-rule="evenodd" clip-rule="evenodd" d="M60.8419 52.6303L51.2336 58.1731C50.3942 58.6558 49.3234 58.369 48.838 57.5329L37.7296 38.3178C37.246 37.4801 37.5334 36.4096 38.3728 35.9269L47.9969 30.3999C54.1495 26.8493 61.9985 28.9482 65.5558 35.0874C66.7299 37.0988 67.2732 39.3201 67.2732 41.4889C67.2732 45.9315 64.9775 50.2516 60.8419 52.6303ZM87.8287 22.2493C77.1742 3.83181 53.587 -2.46477 35.1344 8.16946L4.75493 25.66C3.07789 26.6254 2.50136 28.7663 3.47043 30.4384L29.8018 75.9504C30.3643 76.9229 30.6605 78.0248 30.6605 79.1442V98.0847C30.6605 98.7895 31.4228 99.2286 32.0344 98.8752L40.3039 94.1003L45.9659 90.8471L73.7044 74.8608C86.0763 67.7246 93 54.7799 93 41.4714C93 34.9299 91.3335 28.3185 87.8287 22.2493Z" fill="white"/>
</mask>
<g mask="url(#mask0_509_12979)">
</g>
</svg>
